<?xml version="1.0" standalone="no"?>
<!DOCTYPE svg PUBLIC "-//W3C//DTD SVG 20010904//EN"
 "http://www.w3.org/TR/2001/REC-SVG-20010904/DTD/svg10.dtd">
<svg version="1.0" xmlns="http://www.w3.org/2000/svg"
 width="512.000000pt" height="512.000000pt" viewBox="0 0 512.000000 512.000000"
 preserveAspectRatio="xMidYMid meet">
<metadata>
Created by potrace 1.11, written by Peter Selinger 2001-2013
</metadata>
<g transform="translate(0.000000,512.000000) scale(0.100000,-0.100000)"
fill="#000000" stroke="none">
<path d="M2847 4139 c-9 -6 -17 -7 -17 -4 0 3 -13 -1 -29 -10 -36 -18 -71 -61
-71 -87 0 -12 -4 -16 -11 -12 -8 5 -10 -1 -7 -20 3 -14 2 -26 -3 -26 -4 0 -6
-26 -5 -57 19 -377 19 -453 3 -453 -10 0 -17 4 -17 10 0 30 -90 32 -885 28
-719 -5 -804 -7 -840 -22 -84 -35 -123 -96 -132 -201 -4 -56 -2 -75 7 -75 7 0
10 -6 7 -12 -7 -20 11 -60 24 -52 8 4 9 3 5 -5 -17 -27 106 -103 136 -85 25
15 1139 24 1130 9 -11 -19 -112 -150 -157 -205 -25 -30 -57 -73 -73 -95 -34
-51 -100 -128 -177 -208 -33 -35 -82 -92 -110 -127 -27 -35 -72 -86 -100 -114
-47 -47 -66 -72 -153 -194 -18 -25 -70 -87 -116 -136 -45 -50 -89 -101 -97
-113 -18 -25 -246 -287 -335 -383 -95 -103 -115 -140 -121 -226 -4 -56 -3 -74
7 -74 7 0 10 -6 7 -12 -7 -19 11 -60 23 -53 6 4 7 -1 3 -11 -4 -12 -3 -15 5
-10 7 4 12 2 12 -5 0 -19 40 -48 84 -61 29 -8 235 -13 711 -15 979 -5 1119 -3
1137 15 15 15 45 16 61 2 49 -42 64 -51 93 -59 34 -9 75 -4 85 11 4 6 938 9
1425 4 72 -1 106 10 151 48 13 11 23 26 23 33 0 7 4 13 9 13 5 0 13 10 17 22
9 30 14 158 6 158 -4 0 -8 12 -9 26 0 15 -5 29 -10 33 -5 3 -16 18 -26 34 -10
15 -24 27 -32 27 -8 0 -15 4 -15 10 0 29 -91 33 -750 35 l-665 2 0 1259 c0
1057 -2 1266 -14 1302 -17 50 -84 127 -102 116 -8 -4 -10 -3 -5 4 7 12 6 13
-30 17 -12 1 -25 5 -30 8 -5 3 -17 1 -27 -4z m-135 -1862 c-4 -771 -6 -838
-21 -830 -15 7 -477 13 -1098 13 -145 0 -263 4 -263 8 0 8 65 87 215 262 142
165 165 193 170 210 3 10 17 26 31 34 13 9 56 60 95 112 38 52 98 123 132 158
66 66 152 166 227 261 25 31 62 77 83 102 20 24 45 59 54 76 20 41 93 137 152
203 25 28 62 71 81 97 19 25 46 51 60 57 14 6 39 25 55 43 17 18 30 33 31 33
0 -1 -2 -378 -4 -839z"/>
</g>
</svg>
